G04*
G04 #@! TF.GenerationSoftware,Altium Limited,Altium Designer,25.5.2 (35)*
G04*
G04 Layer_Physical_Order=2*
G04 Layer_Color=16711680*
%FSLAX44Y44*%
%MOMM*%
G71*
G04*
G04 #@! TF.SameCoordinates,B71373E1-A009-4548-BE53-F5938B562A23*
G04*
G04*
G04 #@! TF.FilePolarity,Positive*
G04*
G01*
G75*
%ADD14C,0.2000*%
%ADD15C,0.4000*%
D14*
X12500Y37000D02*
X137500D01*
X12500Y29000D02*
X12500Y29000D01*
X137500D01*
X16000Y17000D02*
X134000D01*
X134000Y17000D01*
X12500Y53000D02*
X137500D01*
X16000Y49000D02*
X134000D01*
X16000Y49000D02*
X16000Y49000D01*
X137500Y21000D02*
X137500Y21000D01*
X12500Y21000D02*
X137500D01*
X16000Y25000D02*
X134000D01*
X16000Y25000D02*
X16000Y25000D01*
X16000Y33000D02*
X16000Y33000D01*
X134000D01*
X16000Y41000D02*
X16000Y41000D01*
X134000D01*
X137500Y45000D02*
X137500Y45000D01*
X12500Y45000D02*
X137500D01*
D15*
X16000Y49000D02*
D03*
Y25000D02*
D03*
X137500Y21000D02*
D03*
X134000Y33000D02*
D03*
X137500Y53000D02*
D03*
X134000Y49000D02*
D03*
X137500Y45000D02*
D03*
X134000Y41000D02*
D03*
X137500Y37000D02*
D03*
Y29000D02*
D03*
X134000Y17000D02*
D03*
X12500Y37000D02*
D03*
Y29000D02*
D03*
X16000Y33000D02*
D03*
Y41000D02*
D03*
X12500Y53000D02*
D03*
Y45000D02*
D03*
Y21000D02*
D03*
X16000Y17000D02*
D03*
X134000Y25000D02*
D03*
M02*
