G04*
G04 #@! TF.GenerationSoftware,Altium Limited,Altium Designer,25.1.2 (22)*
G04*
G04 Layer_Physical_Order=2*
G04 Layer_Color=16711680*
%FSLAX44Y44*%
%MOMM*%
G71*
G04*
G04 #@! TF.SameCoordinates,DF931818-6E7F-4FCC-B893-DB93D8A2BFCA*
G04*
G04*
G04 #@! TF.FilePolarity,Positive*
G04*
G01*
G75*
%ADD12C,0.2000*%
%ADD13C,0.4000*%
D12*
X84773Y17000D02*
X84773Y17000D01*
X134000D01*
X16000Y17000D02*
X84773D01*
X80750Y21000D02*
X80750Y21000D01*
X137500D01*
X12500Y21000D02*
X80750D01*
X16000Y25000D02*
X16000Y25000D01*
X134000D01*
X116000Y29000D02*
X116000Y29000D01*
X137500D01*
X12500Y29000D02*
X116000D01*
X16000Y33000D02*
X16000Y33000D01*
X134000D01*
X113000Y37000D02*
X113000Y37000D01*
X137500D01*
X12500Y37000D02*
X113000D01*
X16000Y41000D02*
X16000Y41000D01*
X134000D01*
X137500Y45000D02*
X137500Y45000D01*
X12500Y45000D02*
X137500D01*
X16000Y49000D02*
X16000Y49000D01*
X134000D01*
X122799Y53000D02*
X122799Y53000D01*
X137500D01*
X12500Y53000D02*
X122799D01*
D13*
X137500Y21000D02*
D03*
X134000Y33000D02*
D03*
X137500Y53000D02*
D03*
X134000Y49000D02*
D03*
X137500Y45000D02*
D03*
X134000Y41000D02*
D03*
X137500Y37000D02*
D03*
Y29000D02*
D03*
X134000Y17000D02*
D03*
X12500Y37000D02*
D03*
Y29000D02*
D03*
X16000Y33000D02*
D03*
Y41000D02*
D03*
Y49000D02*
D03*
X12500Y53000D02*
D03*
Y45000D02*
D03*
X16000Y25000D02*
D03*
X12500Y21000D02*
D03*
X16000Y17000D02*
D03*
X134000Y25000D02*
D03*
M02*
