G04*
G04 #@! TF.GenerationSoftware,Altium Limited,Altium Designer,25.2.1 (25)*
G04*
G04 Layer_Color=65535*
%FSLAX44Y44*%
%MOMM*%
G71*
G04*
G04 #@! TF.SameCoordinates,788CACDB-CCDD-4177-838B-21D94E6A6DDF*
G04*
G04*
G04 #@! TF.FilePolarity,Positive*
G04*
G01*
G75*
G36*
X77500Y61723D02*
X75663D01*
Y63422D01*
X77500D01*
Y61723D01*
D02*
G37*
G36*
X61122D02*
X59284D01*
Y63422D01*
X61122D01*
Y61723D01*
D02*
G37*
G36*
X67147Y60926D02*
X67210Y60919D01*
X67279Y60912D01*
X67355Y60905D01*
X67529Y60877D01*
X67716Y60843D01*
X67903Y60787D01*
X68097Y60711D01*
X68104D01*
X68118Y60704D01*
X68146Y60690D01*
X68181Y60669D01*
X68222Y60649D01*
X68271Y60621D01*
X68382Y60559D01*
X68506Y60475D01*
X68631Y60378D01*
X68756Y60274D01*
X68860Y60149D01*
Y60142D01*
X68874Y60135D01*
X68888Y60115D01*
X68902Y60087D01*
X68950Y60018D01*
X69006Y59928D01*
X69068Y59810D01*
X69124Y59685D01*
X69179Y59539D01*
X69228Y59380D01*
Y59373D01*
X69235Y59359D01*
Y59338D01*
X69241Y59303D01*
X69255Y59255D01*
X69262Y59199D01*
X69269Y59137D01*
X69283Y59061D01*
X69290Y58977D01*
X69297Y58887D01*
X69311Y58783D01*
X69318Y58672D01*
X69325Y58555D01*
Y58423D01*
X69332Y58284D01*
Y58138D01*
Y53825D01*
X67494D01*
Y57369D01*
Y57383D01*
Y57417D01*
Y57473D01*
Y57549D01*
X67487Y57639D01*
Y57743D01*
Y57854D01*
X67480Y57972D01*
X67466Y58215D01*
X67453Y58340D01*
X67439Y58457D01*
X67425Y58568D01*
X67411Y58665D01*
X67390Y58756D01*
X67369Y58825D01*
Y58832D01*
X67362Y58839D01*
X67348Y58881D01*
X67321Y58943D01*
X67279Y59012D01*
X67224Y59095D01*
X67161Y59186D01*
X67078Y59262D01*
X66988Y59338D01*
X66974Y59345D01*
X66939Y59366D01*
X66884Y59401D01*
X66808Y59435D01*
X66718Y59463D01*
X66606Y59498D01*
X66482Y59518D01*
X66350Y59525D01*
X66301D01*
X66267Y59518D01*
X66225D01*
X66177Y59511D01*
X66059Y59491D01*
X65927Y59463D01*
X65781Y59414D01*
X65629Y59352D01*
X65483Y59262D01*
X65476D01*
X65469Y59248D01*
X65448Y59234D01*
X65421Y59213D01*
X65358Y59158D01*
X65275Y59075D01*
X65192Y58977D01*
X65102Y58853D01*
X65026Y58714D01*
X64963Y58562D01*
Y58555D01*
X64956Y58541D01*
X64949Y58513D01*
X64942Y58478D01*
X64928Y58430D01*
X64921Y58367D01*
X64908Y58291D01*
X64894Y58201D01*
X64880Y58097D01*
X64866Y57986D01*
X64859Y57854D01*
X64845Y57709D01*
X64838Y57549D01*
X64831Y57369D01*
X64824Y57175D01*
Y56967D01*
Y53825D01*
X62987D01*
Y60780D01*
X64693D01*
Y59754D01*
X64707Y59768D01*
X64734Y59803D01*
X64783Y59865D01*
X64859Y59941D01*
X64949Y60025D01*
X65053Y60129D01*
X65178Y60233D01*
X65324Y60344D01*
X65476Y60455D01*
X65650Y60559D01*
X65844Y60662D01*
X66045Y60746D01*
X66260Y60822D01*
X66489Y60884D01*
X66731Y60919D01*
X66988Y60933D01*
X67092D01*
X67147Y60926D01*
D02*
G37*
G36*
X56073Y53825D02*
X54312D01*
X53113Y58298D01*
X51934Y53825D01*
X50152D01*
X47954Y60780D01*
X49736D01*
X51039Y56218D01*
X52239Y60780D01*
X54007D01*
X55165Y56218D01*
X56497Y60780D01*
X58313D01*
X56073Y53825D01*
D02*
G37*
G36*
X77500D02*
X75663D01*
Y60780D01*
X77500D01*
Y53825D01*
D02*
G37*
G36*
X61122D02*
X59284D01*
Y60780D01*
X61122D01*
Y53825D01*
D02*
G37*
G36*
X47628Y61800D02*
X44785D01*
Y53825D01*
X42850D01*
Y61800D01*
X40000D01*
Y63422D01*
X47628D01*
Y61800D01*
D02*
G37*
G36*
X73118Y60780D02*
X74373D01*
Y59317D01*
X73118D01*
Y56509D01*
Y56502D01*
Y56474D01*
Y56433D01*
Y56370D01*
Y56308D01*
Y56232D01*
X73125Y56065D01*
Y55892D01*
X73132Y55809D01*
Y55725D01*
X73138Y55656D01*
Y55594D01*
X73145Y55545D01*
X73152Y55510D01*
Y55504D01*
X73159Y55490D01*
X73173Y55462D01*
X73187Y55427D01*
X73208Y55392D01*
X73236Y55358D01*
X73270Y55316D01*
X73312Y55282D01*
X73319Y55275D01*
X73333Y55268D01*
X73360Y55254D01*
X73402Y55240D01*
X73444Y55219D01*
X73499Y55205D01*
X73562Y55198D01*
X73624Y55191D01*
X73672D01*
X73728Y55198D01*
X73811Y55212D01*
X73915Y55233D01*
X74047Y55268D01*
X74193Y55309D01*
X74366Y55365D01*
X74525Y53936D01*
X74518D01*
X74498Y53923D01*
X74463Y53909D01*
X74414Y53895D01*
X74352Y53874D01*
X74276Y53853D01*
X74193Y53825D01*
X74102Y53805D01*
X73998Y53777D01*
X73887Y53749D01*
X73770Y53728D01*
X73638Y53707D01*
X73367Y53680D01*
X73069Y53666D01*
X72986D01*
X72944Y53673D01*
X72896D01*
X72771Y53687D01*
X72632Y53707D01*
X72487Y53735D01*
X72327Y53777D01*
X72175Y53832D01*
X72168D01*
X72161Y53839D01*
X72140Y53846D01*
X72112Y53860D01*
X72043Y53902D01*
X71953Y53950D01*
X71856Y54013D01*
X71766Y54082D01*
X71669Y54165D01*
X71592Y54262D01*
X71585Y54276D01*
X71564Y54311D01*
X71530Y54373D01*
X71488Y54450D01*
X71447Y54553D01*
X71405Y54678D01*
X71363Y54824D01*
X71336Y54983D01*
Y54990D01*
Y54997D01*
X71329Y55018D01*
Y55046D01*
X71322Y55087D01*
Y55136D01*
X71315Y55198D01*
X71308Y55268D01*
X71301Y55344D01*
Y55441D01*
X71294Y55545D01*
X71287Y55663D01*
Y55795D01*
X71280Y55947D01*
Y56107D01*
Y56280D01*
Y59317D01*
X70434D01*
Y60780D01*
X71280D01*
Y62160D01*
X73118Y63242D01*
Y60780D01*
D02*
G37*
G36*
X82028Y60926D02*
X82118Y60912D01*
X82229Y60898D01*
X82354Y60871D01*
X82500Y60836D01*
X82652Y60794D01*
X82819Y60732D01*
X82992Y60656D01*
X83165Y60566D01*
X83346Y60455D01*
X83526Y60323D01*
X83699Y60170D01*
X83873Y59997D01*
X84032Y59796D01*
Y60780D01*
X85752D01*
Y54533D01*
Y54519D01*
Y54477D01*
Y54415D01*
Y54332D01*
X85745Y54234D01*
X85738Y54117D01*
Y53985D01*
X85724Y53846D01*
X85717Y53701D01*
X85703Y53548D01*
X85662Y53243D01*
X85641Y53097D01*
X85613Y52959D01*
X85578Y52820D01*
X85544Y52702D01*
Y52695D01*
X85537Y52674D01*
X85523Y52647D01*
X85509Y52605D01*
X85488Y52550D01*
X85461Y52494D01*
X85398Y52355D01*
X85315Y52203D01*
X85218Y52043D01*
X85107Y51884D01*
X84975Y51745D01*
X84968Y51738D01*
X84961Y51731D01*
X84941Y51711D01*
X84906Y51690D01*
X84871Y51662D01*
X84830Y51627D01*
X84774Y51586D01*
X84712Y51551D01*
X84649Y51502D01*
X84573Y51461D01*
X84407Y51371D01*
X84213Y51281D01*
X83991Y51204D01*
X83984D01*
X83963Y51197D01*
X83928Y51184D01*
X83880Y51177D01*
X83824Y51156D01*
X83748Y51142D01*
X83665Y51121D01*
X83568Y51107D01*
X83464Y51086D01*
X83346Y51066D01*
X83221Y51052D01*
X83082Y51038D01*
X82937Y51024D01*
X82777Y51010D01*
X82618Y51003D01*
X82326D01*
X82278Y51010D01*
X82160D01*
X82014Y51024D01*
X81848Y51038D01*
X81661Y51052D01*
X81467Y51080D01*
X81265Y51114D01*
X81057Y51156D01*
X80842Y51204D01*
X80641Y51260D01*
X80440Y51329D01*
X80253Y51412D01*
X80087Y51509D01*
X79934Y51613D01*
X79927Y51620D01*
X79899Y51641D01*
X79865Y51676D01*
X79816Y51724D01*
X79761Y51787D01*
X79698Y51856D01*
X79636Y51939D01*
X79566Y52036D01*
X79497Y52140D01*
X79435Y52258D01*
X79372Y52383D01*
X79317Y52522D01*
X79268Y52667D01*
X79234Y52820D01*
X79206Y52979D01*
X79199Y53153D01*
Y53160D01*
Y53174D01*
Y53187D01*
Y53215D01*
Y53285D01*
X79206Y53375D01*
X81307Y53118D01*
Y53111D01*
Y53104D01*
X81321Y53056D01*
X81335Y52993D01*
X81356Y52917D01*
X81390Y52834D01*
X81432Y52751D01*
X81480Y52674D01*
X81550Y52612D01*
X81564Y52605D01*
X81598Y52584D01*
X81661Y52550D01*
X81751Y52515D01*
X81862Y52473D01*
X81931Y52459D01*
X82007Y52446D01*
X82091Y52432D01*
X82174Y52418D01*
X82271Y52411D01*
X82444D01*
X82493Y52418D01*
X82555D01*
X82625Y52425D01*
X82701Y52432D01*
X82784Y52439D01*
X82957Y52466D01*
X83138Y52508D01*
X83304Y52557D01*
X83387Y52591D01*
X83457Y52633D01*
X83470Y52640D01*
X83498Y52660D01*
X83540Y52695D01*
X83595Y52744D01*
X83651Y52813D01*
X83713Y52889D01*
X83776Y52986D01*
X83824Y53097D01*
X83831Y53111D01*
X83838Y53146D01*
X83852Y53201D01*
X83859Y53243D01*
X83873Y53292D01*
X83880Y53340D01*
X83886Y53402D01*
X83893Y53472D01*
X83900Y53548D01*
X83907Y53631D01*
Y53728D01*
X83914Y53825D01*
Y53936D01*
X83921Y54956D01*
X83914Y54942D01*
X83886Y54907D01*
X83838Y54852D01*
X83769Y54782D01*
X83692Y54692D01*
X83588Y54595D01*
X83477Y54498D01*
X83346Y54394D01*
X83200Y54283D01*
X83048Y54186D01*
X82874Y54089D01*
X82687Y54006D01*
X82486Y53929D01*
X82278Y53874D01*
X82056Y53839D01*
X81827Y53825D01*
X81765D01*
X81695Y53832D01*
X81598Y53846D01*
X81480Y53860D01*
X81342Y53888D01*
X81189Y53923D01*
X81023Y53971D01*
X80849Y54033D01*
X80669Y54117D01*
X80489Y54207D01*
X80302Y54325D01*
X80114Y54456D01*
X79941Y54616D01*
X79768Y54796D01*
X79608Y55004D01*
X79601Y55018D01*
X79580Y55046D01*
X79553Y55101D01*
X79511Y55171D01*
X79462Y55261D01*
X79407Y55372D01*
X79352Y55504D01*
X79289Y55649D01*
X79227Y55809D01*
X79171Y55982D01*
X79116Y56176D01*
X79067Y56384D01*
X79033Y56599D01*
X78998Y56835D01*
X78977Y57078D01*
X78970Y57334D01*
Y57341D01*
Y57355D01*
Y57376D01*
Y57410D01*
Y57452D01*
X78977Y57501D01*
Y57556D01*
X78984Y57618D01*
X78998Y57771D01*
X79012Y57937D01*
X79040Y58125D01*
X79074Y58326D01*
X79123Y58534D01*
X79178Y58756D01*
X79241Y58977D01*
X79324Y59199D01*
X79421Y59414D01*
X79532Y59622D01*
X79664Y59823D01*
X79809Y60004D01*
X79816Y60018D01*
X79851Y60045D01*
X79892Y60087D01*
X79962Y60149D01*
X80045Y60219D01*
X80142Y60295D01*
X80253Y60385D01*
X80385Y60468D01*
X80530Y60559D01*
X80690Y60642D01*
X80863Y60718D01*
X81044Y60787D01*
X81245Y60850D01*
X81453Y60891D01*
X81674Y60926D01*
X81903Y60933D01*
X81959D01*
X82028Y60926D01*
D02*
G37*
G36*
X62127Y49075D02*
X62176D01*
X62238Y49069D01*
X62300D01*
X62453Y49048D01*
X62619Y49027D01*
X62814Y48992D01*
X63021Y48951D01*
X63243Y48895D01*
X63479Y48826D01*
X63715Y48743D01*
X63958Y48639D01*
X64193Y48521D01*
X64429Y48382D01*
X64651Y48223D01*
X64866Y48035D01*
X64873Y48028D01*
X64894Y48008D01*
X64928Y47973D01*
X64970Y47924D01*
X65026Y47862D01*
X65088Y47779D01*
X65157Y47689D01*
X65233Y47585D01*
X65310Y47467D01*
X65393Y47335D01*
X65476Y47189D01*
X65560Y47037D01*
X65636Y46863D01*
X65712Y46683D01*
X65788Y46482D01*
X65851Y46274D01*
X63930Y45816D01*
Y45823D01*
X63923Y45851D01*
X63909Y45886D01*
X63895Y45941D01*
X63874Y46004D01*
X63847Y46073D01*
X63812Y46156D01*
X63777Y46239D01*
X63680Y46427D01*
X63618Y46524D01*
X63555Y46621D01*
X63486Y46718D01*
X63403Y46815D01*
X63313Y46905D01*
X63216Y46988D01*
X63209Y46995D01*
X63195Y47009D01*
X63160Y47030D01*
X63119Y47058D01*
X63070Y47092D01*
X63008Y47127D01*
X62931Y47169D01*
X62855Y47210D01*
X62758Y47245D01*
X62661Y47287D01*
X62550Y47321D01*
X62439Y47356D01*
X62314Y47384D01*
X62182Y47404D01*
X62051Y47418D01*
X61905Y47425D01*
X61857D01*
X61801Y47418D01*
X61732Y47411D01*
X61642Y47404D01*
X61538Y47384D01*
X61420Y47363D01*
X61295Y47328D01*
X61156Y47287D01*
X61018Y47238D01*
X60872Y47175D01*
X60726Y47099D01*
X60588Y47009D01*
X60442Y46912D01*
X60310Y46794D01*
X60178Y46656D01*
X60172Y46649D01*
X60151Y46621D01*
X60116Y46572D01*
X60075Y46510D01*
X60026Y46427D01*
X59970Y46323D01*
X59908Y46205D01*
X59853Y46059D01*
X59790Y45900D01*
X59728Y45712D01*
X59672Y45511D01*
X59624Y45289D01*
X59582Y45040D01*
X59548Y44776D01*
X59527Y44485D01*
X59520Y44173D01*
Y44166D01*
Y44152D01*
Y44124D01*
Y44097D01*
Y44048D01*
X59527Y44000D01*
Y43944D01*
X59534Y43875D01*
X59541Y43729D01*
X59554Y43556D01*
X59575Y43369D01*
X59603Y43168D01*
X59638Y42960D01*
X59679Y42745D01*
X59735Y42530D01*
X59797Y42315D01*
X59866Y42114D01*
X59957Y41919D01*
X60054Y41746D01*
X60172Y41587D01*
X60178Y41580D01*
X60199Y41552D01*
X60241Y41517D01*
X60290Y41469D01*
X60352Y41406D01*
X60435Y41344D01*
X60525Y41274D01*
X60629Y41205D01*
X60747Y41129D01*
X60872Y41060D01*
X61011Y40997D01*
X61163Y40935D01*
X61323Y40886D01*
X61496Y40852D01*
X61676Y40824D01*
X61870Y40817D01*
X61947D01*
X62002Y40824D01*
X62065Y40831D01*
X62141Y40845D01*
X62231Y40858D01*
X62328Y40879D01*
X62425Y40900D01*
X62529Y40935D01*
X62640Y40976D01*
X62751Y41025D01*
X62869Y41080D01*
X62980Y41143D01*
X63091Y41219D01*
X63195Y41302D01*
X63202Y41309D01*
X63223Y41323D01*
X63250Y41358D01*
X63285Y41399D01*
X63334Y41448D01*
X63389Y41517D01*
X63444Y41593D01*
X63507Y41684D01*
X63569Y41781D01*
X63639Y41899D01*
X63708Y42023D01*
X63770Y42162D01*
X63833Y42322D01*
X63895Y42481D01*
X63951Y42661D01*
X63999Y42856D01*
X65878Y42259D01*
Y42252D01*
X65872Y42238D01*
X65865Y42218D01*
X65858Y42190D01*
X65844Y42155D01*
X65830Y42107D01*
X65795Y42003D01*
X65747Y41871D01*
X65684Y41718D01*
X65615Y41552D01*
X65532Y41379D01*
X65442Y41191D01*
X65338Y40997D01*
X65220Y40803D01*
X65088Y40609D01*
X64942Y40422D01*
X64790Y40241D01*
X64616Y40075D01*
X64436Y39922D01*
X64422Y39915D01*
X64388Y39888D01*
X64332Y39853D01*
X64256Y39804D01*
X64159Y39749D01*
X64041Y39680D01*
X63902Y39610D01*
X63743Y39541D01*
X63569Y39472D01*
X63375Y39402D01*
X63167Y39340D01*
X62938Y39278D01*
X62703Y39229D01*
X62446Y39194D01*
X62176Y39167D01*
X61891Y39160D01*
X61808D01*
X61760Y39167D01*
X61704D01*
X61642Y39174D01*
X61572Y39180D01*
X61496Y39187D01*
X61413Y39201D01*
X61219Y39229D01*
X61011Y39271D01*
X60782Y39326D01*
X60539Y39388D01*
X60283Y39479D01*
X60026Y39583D01*
X59756Y39707D01*
X59499Y39860D01*
X59236Y40033D01*
X59111Y40130D01*
X58986Y40234D01*
X58868Y40345D01*
X58750Y40463D01*
Y40470D01*
X58736Y40477D01*
X58722Y40498D01*
X58695Y40526D01*
X58667Y40560D01*
X58639Y40602D01*
X58597Y40651D01*
X58556Y40706D01*
X58514Y40768D01*
X58466Y40838D01*
X58417Y40914D01*
X58362Y40997D01*
X58251Y41184D01*
X58140Y41399D01*
X58022Y41642D01*
X57911Y41906D01*
X57807Y42204D01*
X57717Y42523D01*
X57634Y42863D01*
X57578Y43230D01*
X57537Y43618D01*
X57530Y43826D01*
X57523Y44034D01*
Y44041D01*
Y44062D01*
Y44097D01*
Y44138D01*
X57530Y44194D01*
Y44263D01*
X57537Y44339D01*
X57544Y44430D01*
X57551Y44527D01*
X57557Y44631D01*
X57571Y44742D01*
X57585Y44859D01*
X57627Y45116D01*
X57675Y45394D01*
X57745Y45692D01*
X57821Y45997D01*
X57925Y46302D01*
X58043Y46614D01*
X58188Y46919D01*
X58348Y47210D01*
X58542Y47495D01*
X58646Y47626D01*
X58757Y47751D01*
X58764Y47758D01*
X58771Y47765D01*
X58792Y47786D01*
X58812Y47807D01*
X58882Y47876D01*
X58979Y47959D01*
X59104Y48063D01*
X59256Y48174D01*
X59430Y48292D01*
X59624Y48417D01*
X59846Y48542D01*
X60095Y48660D01*
X60359Y48777D01*
X60650Y48874D01*
X60962Y48958D01*
X61288Y49027D01*
X61642Y49069D01*
X61822Y49075D01*
X62009Y49082D01*
X62085D01*
X62127Y49075D01*
D02*
G37*
G36*
X52447D02*
X52495D01*
X52558Y49069D01*
X52620D01*
X52773Y49048D01*
X52939Y49027D01*
X53133Y48992D01*
X53341Y48951D01*
X53563Y48895D01*
X53799Y48826D01*
X54035Y48743D01*
X54278Y48639D01*
X54513Y48521D01*
X54749Y48382D01*
X54971Y48223D01*
X55186Y48035D01*
X55193Y48028D01*
X55214Y48008D01*
X55248Y47973D01*
X55290Y47924D01*
X55345Y47862D01*
X55408Y47779D01*
X55477Y47689D01*
X55553Y47585D01*
X55630Y47467D01*
X55713Y47335D01*
X55796Y47189D01*
X55879Y47037D01*
X55956Y46863D01*
X56032Y46683D01*
X56108Y46482D01*
X56171Y46274D01*
X54250Y45816D01*
Y45823D01*
X54243Y45851D01*
X54229Y45886D01*
X54215Y45941D01*
X54194Y46004D01*
X54167Y46073D01*
X54132Y46156D01*
X54097Y46239D01*
X54000Y46427D01*
X53938Y46524D01*
X53875Y46621D01*
X53806Y46718D01*
X53723Y46815D01*
X53633Y46905D01*
X53536Y46988D01*
X53529Y46995D01*
X53515Y47009D01*
X53480Y47030D01*
X53439Y47058D01*
X53390Y47092D01*
X53327Y47127D01*
X53251Y47169D01*
X53175Y47210D01*
X53078Y47245D01*
X52981Y47287D01*
X52870Y47321D01*
X52759Y47356D01*
X52634Y47384D01*
X52502Y47404D01*
X52371Y47418D01*
X52225Y47425D01*
X52176D01*
X52121Y47418D01*
X52052Y47411D01*
X51961Y47404D01*
X51858Y47384D01*
X51740Y47363D01*
X51615Y47328D01*
X51476Y47287D01*
X51337Y47238D01*
X51192Y47175D01*
X51046Y47099D01*
X50908Y47009D01*
X50762Y46912D01*
X50630Y46794D01*
X50498Y46656D01*
X50491Y46649D01*
X50471Y46621D01*
X50436Y46572D01*
X50394Y46510D01*
X50346Y46427D01*
X50290Y46323D01*
X50228Y46205D01*
X50173Y46059D01*
X50110Y45900D01*
X50048Y45712D01*
X49992Y45511D01*
X49944Y45289D01*
X49902Y45040D01*
X49867Y44776D01*
X49847Y44485D01*
X49840Y44173D01*
Y44166D01*
Y44152D01*
Y44124D01*
Y44097D01*
Y44048D01*
X49847Y44000D01*
Y43944D01*
X49854Y43875D01*
X49860Y43729D01*
X49874Y43556D01*
X49895Y43369D01*
X49923Y43168D01*
X49957Y42960D01*
X49999Y42745D01*
X50055Y42530D01*
X50117Y42315D01*
X50186Y42114D01*
X50276Y41919D01*
X50374Y41746D01*
X50491Y41587D01*
X50498Y41580D01*
X50519Y41552D01*
X50561Y41517D01*
X50609Y41469D01*
X50672Y41406D01*
X50755Y41344D01*
X50845Y41274D01*
X50949Y41205D01*
X51067Y41129D01*
X51192Y41060D01*
X51330Y40997D01*
X51483Y40935D01*
X51642Y40886D01*
X51816Y40852D01*
X51996Y40824D01*
X52190Y40817D01*
X52267D01*
X52322Y40824D01*
X52385Y40831D01*
X52461Y40845D01*
X52551Y40858D01*
X52648Y40879D01*
X52745Y40900D01*
X52849Y40935D01*
X52960Y40976D01*
X53071Y41025D01*
X53189Y41080D01*
X53300Y41143D01*
X53411Y41219D01*
X53515Y41302D01*
X53522Y41309D01*
X53542Y41323D01*
X53570Y41358D01*
X53605Y41399D01*
X53653Y41448D01*
X53709Y41517D01*
X53764Y41593D01*
X53827Y41684D01*
X53889Y41781D01*
X53959Y41899D01*
X54028Y42023D01*
X54090Y42162D01*
X54153Y42322D01*
X54215Y42481D01*
X54271Y42661D01*
X54319Y42856D01*
X56198Y42259D01*
Y42252D01*
X56191Y42238D01*
X56184Y42218D01*
X56178Y42190D01*
X56164Y42155D01*
X56150Y42107D01*
X56115Y42003D01*
X56066Y41871D01*
X56004Y41718D01*
X55935Y41552D01*
X55852Y41379D01*
X55761Y41191D01*
X55657Y40997D01*
X55539Y40803D01*
X55408Y40609D01*
X55262Y40422D01*
X55110Y40241D01*
X54936Y40075D01*
X54756Y39922D01*
X54742Y39915D01*
X54707Y39888D01*
X54652Y39853D01*
X54576Y39804D01*
X54479Y39749D01*
X54361Y39680D01*
X54222Y39610D01*
X54063Y39541D01*
X53889Y39472D01*
X53695Y39402D01*
X53487Y39340D01*
X53258Y39278D01*
X53022Y39229D01*
X52766Y39194D01*
X52495Y39167D01*
X52211Y39160D01*
X52128D01*
X52079Y39167D01*
X52024D01*
X51961Y39174D01*
X51892Y39180D01*
X51816Y39187D01*
X51733Y39201D01*
X51539Y39229D01*
X51330Y39271D01*
X51102Y39326D01*
X50859Y39388D01*
X50602Y39479D01*
X50346Y39583D01*
X50075Y39707D01*
X49819Y39860D01*
X49555Y40033D01*
X49430Y40130D01*
X49306Y40234D01*
X49188Y40345D01*
X49070Y40463D01*
Y40470D01*
X49056Y40477D01*
X49042Y40498D01*
X49015Y40526D01*
X48987Y40560D01*
X48959Y40602D01*
X48917Y40651D01*
X48876Y40706D01*
X48834Y40768D01*
X48786Y40838D01*
X48737Y40914D01*
X48682Y40997D01*
X48571Y41184D01*
X48460Y41399D01*
X48342Y41642D01*
X48231Y41906D01*
X48127Y42204D01*
X48037Y42523D01*
X47954Y42863D01*
X47898Y43230D01*
X47856Y43618D01*
X47849Y43826D01*
X47843Y44034D01*
Y44041D01*
Y44062D01*
Y44097D01*
Y44138D01*
X47849Y44194D01*
Y44263D01*
X47856Y44339D01*
X47863Y44430D01*
X47870Y44527D01*
X47877Y44631D01*
X47891Y44742D01*
X47905Y44859D01*
X47947Y45116D01*
X47995Y45394D01*
X48064Y45692D01*
X48141Y45997D01*
X48245Y46302D01*
X48363Y46614D01*
X48508Y46919D01*
X48668Y47210D01*
X48862Y47495D01*
X48966Y47626D01*
X49077Y47751D01*
X49084Y47758D01*
X49091Y47765D01*
X49111Y47786D01*
X49132Y47807D01*
X49202Y47876D01*
X49299Y47959D01*
X49424Y48063D01*
X49576Y48174D01*
X49749Y48292D01*
X49944Y48417D01*
X50166Y48542D01*
X50415Y48660D01*
X50679Y48777D01*
X50970Y48874D01*
X51282Y48958D01*
X51608Y49027D01*
X51961Y49069D01*
X52142Y49075D01*
X52329Y49082D01*
X52405D01*
X52447Y49075D01*
D02*
G37*
G36*
X46581Y47300D02*
X41935D01*
Y45026D01*
X45943D01*
Y43403D01*
X41935D01*
Y39326D01*
X40000D01*
Y48923D01*
X46581D01*
Y47300D01*
D02*
G37*
G36*
X88775Y34743D02*
X88831Y34736D01*
X88893Y34729D01*
X88969Y34722D01*
X89052Y34708D01*
X89240Y34666D01*
X89448Y34604D01*
X89552Y34562D01*
X89663Y34514D01*
X89774Y34458D01*
X89885Y34396D01*
X89309Y32794D01*
X89302Y32801D01*
X89288Y32808D01*
X89261Y32822D01*
X89233Y32843D01*
X89191Y32863D01*
X89143Y32891D01*
X89025Y32947D01*
X88893Y33002D01*
X88747Y33051D01*
X88595Y33085D01*
X88519Y33099D01*
X88380D01*
X88304Y33085D01*
X88214Y33071D01*
X88110Y33044D01*
X87999Y33009D01*
X87888Y32954D01*
X87784Y32884D01*
X87770Y32877D01*
X87742Y32843D01*
X87693Y32787D01*
X87631Y32711D01*
X87569Y32600D01*
X87534Y32538D01*
X87499Y32468D01*
X87465Y32392D01*
X87430Y32309D01*
X87395Y32212D01*
X87367Y32115D01*
Y32108D01*
X87361Y32087D01*
X87354Y32052D01*
X87347Y32004D01*
X87333Y31934D01*
X87319Y31844D01*
X87305Y31740D01*
X87291Y31615D01*
X87277Y31470D01*
X87263Y31303D01*
X87250Y31109D01*
X87236Y30901D01*
X87229Y30658D01*
X87222Y30395D01*
X87215Y30104D01*
Y29951D01*
Y29785D01*
Y27642D01*
X85377D01*
Y34597D01*
X87083D01*
Y33605D01*
X87090Y33612D01*
X87104Y33633D01*
X87125Y33675D01*
X87160Y33716D01*
X87194Y33772D01*
X87243Y33841D01*
X87347Y33987D01*
X87465Y34139D01*
X87596Y34292D01*
X87666Y34361D01*
X87735Y34424D01*
X87804Y34479D01*
X87867Y34528D01*
X87874D01*
X87881Y34534D01*
X87901Y34548D01*
X87929Y34562D01*
X88006Y34597D01*
X88103Y34639D01*
X88220Y34680D01*
X88352Y34715D01*
X88505Y34743D01*
X88664Y34750D01*
X88727D01*
X88775Y34743D01*
D02*
G37*
G36*
X94621D02*
X94704Y34736D01*
X94808Y34722D01*
X94933Y34701D01*
X95064Y34673D01*
X95217Y34632D01*
X95377Y34583D01*
X95536Y34521D01*
X95709Y34444D01*
X95883Y34347D01*
X96056Y34243D01*
X96229Y34111D01*
X96403Y33966D01*
X96562Y33800D01*
X96569Y33786D01*
X96597Y33758D01*
X96638Y33702D01*
X96694Y33626D01*
X96756Y33529D01*
X96833Y33411D01*
X96909Y33273D01*
X96985Y33113D01*
X97062Y32933D01*
X97138Y32739D01*
X97214Y32517D01*
X97276Y32281D01*
X97332Y32024D01*
X97374Y31754D01*
X97401Y31463D01*
X97408Y31151D01*
Y31144D01*
Y31130D01*
Y31109D01*
Y31074D01*
Y31033D01*
X97401Y30984D01*
Y30929D01*
X97394Y30866D01*
X97381Y30721D01*
X97367Y30547D01*
X97339Y30360D01*
X97304Y30159D01*
X97256Y29944D01*
X97200Y29729D01*
X97131Y29500D01*
X97048Y29278D01*
X96951Y29056D01*
X96840Y28842D01*
X96708Y28633D01*
X96555Y28446D01*
X96548Y28432D01*
X96514Y28405D01*
X96472Y28356D01*
X96403Y28294D01*
X96320Y28224D01*
X96222Y28141D01*
X96105Y28051D01*
X95980Y27968D01*
X95834Y27878D01*
X95675Y27787D01*
X95508Y27704D01*
X95321Y27635D01*
X95134Y27573D01*
X94926Y27524D01*
X94711Y27496D01*
X94489Y27482D01*
X94433D01*
X94392Y27489D01*
X94336D01*
X94281Y27496D01*
X94212Y27503D01*
X94142Y27510D01*
X93976Y27538D01*
X93795Y27580D01*
X93615Y27635D01*
X93435Y27711D01*
X93428D01*
X93414Y27725D01*
X93386Y27739D01*
X93352Y27753D01*
X93310Y27781D01*
X93262Y27815D01*
X93206Y27850D01*
X93137Y27898D01*
X92991Y28003D01*
X92915Y28065D01*
X92825Y28141D01*
X92741Y28217D01*
X92644Y28301D01*
X92554Y28398D01*
X92457Y28495D01*
Y25000D01*
X90620D01*
Y34597D01*
X92332D01*
Y33571D01*
X92339Y33578D01*
X92346Y33591D01*
X92367Y33619D01*
X92395Y33661D01*
X92430Y33702D01*
X92471Y33758D01*
X92513Y33813D01*
X92568Y33876D01*
X92700Y34007D01*
X92852Y34153D01*
X93033Y34292D01*
X93234Y34424D01*
X93241Y34430D01*
X93262Y34437D01*
X93289Y34451D01*
X93331Y34472D01*
X93386Y34500D01*
X93449Y34528D01*
X93525Y34555D01*
X93608Y34590D01*
X93698Y34618D01*
X93795Y34646D01*
X94010Y34701D01*
X94246Y34736D01*
X94371Y34750D01*
X94558D01*
X94621Y34743D01*
D02*
G37*
G36*
X73721D02*
X73832Y34736D01*
X73957Y34722D01*
X74096Y34701D01*
X74241Y34680D01*
X74401Y34652D01*
X74560Y34618D01*
X74733Y34569D01*
X74900Y34514D01*
X75066Y34451D01*
X75233Y34375D01*
X75385Y34292D01*
X75531Y34195D01*
X75538Y34188D01*
X75566Y34167D01*
X75600Y34139D01*
X75656Y34091D01*
X75718Y34035D01*
X75787Y33966D01*
X75864Y33876D01*
X75947Y33779D01*
X76037Y33675D01*
X76127Y33550D01*
X76217Y33411D01*
X76301Y33259D01*
X76391Y33099D01*
X76474Y32926D01*
X76543Y32732D01*
X76613Y32531D01*
X74803Y32205D01*
Y32212D01*
X74796Y32225D01*
X74789Y32253D01*
X74782Y32295D01*
X74768Y32336D01*
X74754Y32392D01*
X74713Y32510D01*
X74657Y32641D01*
X74581Y32780D01*
X74491Y32905D01*
X74380Y33023D01*
X74373D01*
X74366Y33037D01*
X74345Y33051D01*
X74324Y33064D01*
X74248Y33113D01*
X74151Y33162D01*
X74033Y33210D01*
X73887Y33259D01*
X73721Y33286D01*
X73541Y33300D01*
X73471D01*
X73423Y33293D01*
X73367Y33286D01*
X73298Y33273D01*
X73222Y33259D01*
X73145Y33238D01*
X73055Y33217D01*
X72965Y33182D01*
X72875Y33148D01*
X72785Y33099D01*
X72695Y33044D01*
X72605Y32981D01*
X72521Y32905D01*
X72438Y32822D01*
X72431Y32815D01*
X72417Y32801D01*
X72403Y32773D01*
X72376Y32732D01*
X72341Y32676D01*
X72306Y32614D01*
X72272Y32538D01*
X72237Y32447D01*
X72196Y32343D01*
X72161Y32225D01*
X72126Y32094D01*
X72091Y31955D01*
X72064Y31795D01*
X72050Y31622D01*
X72036Y31435D01*
X72029Y31234D01*
Y31220D01*
Y31178D01*
Y31116D01*
X72036Y31033D01*
X72043Y30929D01*
X72050Y30818D01*
X72064Y30686D01*
X72084Y30554D01*
X72133Y30263D01*
X72168Y30117D01*
X72202Y29979D01*
X72251Y29840D01*
X72306Y29708D01*
X72369Y29590D01*
X72445Y29486D01*
X72452Y29479D01*
X72466Y29466D01*
X72487Y29438D01*
X72521Y29410D01*
X72563Y29369D01*
X72611Y29327D01*
X72674Y29278D01*
X72743Y29237D01*
X72820Y29188D01*
X72903Y29140D01*
X72993Y29098D01*
X73090Y29056D01*
X73201Y29029D01*
X73312Y29001D01*
X73437Y28987D01*
X73562Y28980D01*
X73610D01*
X73652Y28987D01*
X73693D01*
X73742Y28994D01*
X73867Y29015D01*
X73998Y29056D01*
X74144Y29105D01*
X74283Y29181D01*
X74352Y29223D01*
X74414Y29278D01*
X74421Y29285D01*
X74428Y29292D01*
X74449Y29313D01*
X74470Y29334D01*
X74498Y29369D01*
X74532Y29410D01*
X74567Y29459D01*
X74602Y29521D01*
X74643Y29583D01*
X74678Y29660D01*
X74720Y29743D01*
X74761Y29840D01*
X74796Y29937D01*
X74830Y30055D01*
X74865Y30173D01*
X74893Y30305D01*
X76703Y30000D01*
Y29986D01*
X76689Y29944D01*
X76668Y29882D01*
X76647Y29792D01*
X76613Y29688D01*
X76571Y29570D01*
X76522Y29438D01*
X76460Y29299D01*
X76391Y29147D01*
X76314Y28994D01*
X76224Y28835D01*
X76127Y28675D01*
X76016Y28523D01*
X75898Y28377D01*
X75767Y28238D01*
X75621Y28114D01*
X75614Y28107D01*
X75586Y28086D01*
X75538Y28058D01*
X75475Y28016D01*
X75392Y27968D01*
X75295Y27912D01*
X75184Y27857D01*
X75052Y27801D01*
X74907Y27739D01*
X74747Y27683D01*
X74574Y27628D01*
X74380Y27580D01*
X74179Y27538D01*
X73957Y27510D01*
X73721Y27489D01*
X73478Y27482D01*
X73409D01*
X73374Y27489D01*
X73333D01*
X73229Y27496D01*
X73097Y27510D01*
X72951Y27531D01*
X72785Y27566D01*
X72605Y27600D01*
X72410Y27656D01*
X72216Y27718D01*
X72008Y27794D01*
X71807Y27885D01*
X71606Y27996D01*
X71412Y28120D01*
X71225Y28273D01*
X71044Y28439D01*
X71038Y28453D01*
X71003Y28481D01*
X70961Y28536D01*
X70906Y28620D01*
X70836Y28717D01*
X70760Y28835D01*
X70677Y28973D01*
X70594Y29133D01*
X70511Y29313D01*
X70427Y29514D01*
X70351Y29736D01*
X70282Y29972D01*
X70226Y30228D01*
X70185Y30506D01*
X70150Y30797D01*
X70143Y31109D01*
Y31116D01*
Y31130D01*
Y31151D01*
Y31185D01*
X70150Y31227D01*
Y31275D01*
Y31331D01*
X70157Y31393D01*
X70171Y31539D01*
X70191Y31705D01*
X70219Y31886D01*
X70254Y32087D01*
X70303Y32302D01*
X70365Y32517D01*
X70441Y32739D01*
X70524Y32967D01*
X70628Y33182D01*
X70753Y33397D01*
X70892Y33598D01*
X71051Y33786D01*
X71065Y33800D01*
X71093Y33827D01*
X71148Y33876D01*
X71218Y33938D01*
X71308Y34007D01*
X71419Y34091D01*
X71551Y34181D01*
X71703Y34271D01*
X71870Y34354D01*
X72050Y34444D01*
X72251Y34528D01*
X72473Y34597D01*
X72709Y34659D01*
X72958Y34708D01*
X73229Y34736D01*
X73513Y34750D01*
X73638D01*
X73721Y34743D01*
D02*
G37*
G36*
X49257Y27642D02*
X47461D01*
X47454Y35193D01*
X45554Y27642D01*
X43689D01*
X41796Y35193D01*
Y27642D01*
X40000D01*
Y37239D01*
X42899D01*
X44632Y30686D01*
X46345Y37239D01*
X49257D01*
Y27642D01*
D02*
G37*
G36*
X108156D02*
X106319D01*
Y37239D01*
X108156D01*
Y27642D01*
D02*
G37*
G36*
X101784Y34743D02*
X101888D01*
X102006Y34736D01*
X102137Y34729D01*
X102276Y34715D01*
X102422Y34701D01*
X102574Y34680D01*
X102879Y34625D01*
X103025Y34597D01*
X103171Y34555D01*
X103302Y34507D01*
X103420Y34458D01*
X103427D01*
X103448Y34444D01*
X103476Y34430D01*
X103517Y34403D01*
X103566Y34375D01*
X103621Y34340D01*
X103753Y34257D01*
X103892Y34146D01*
X104030Y34021D01*
X104162Y33876D01*
X104218Y33800D01*
X104266Y33716D01*
Y33709D01*
X104280Y33695D01*
X104287Y33668D01*
X104308Y33626D01*
X104322Y33578D01*
X104342Y33508D01*
X104370Y33432D01*
X104391Y33342D01*
X104412Y33238D01*
X104439Y33113D01*
X104460Y32981D01*
X104474Y32829D01*
X104495Y32662D01*
X104502Y32482D01*
X104516Y32281D01*
Y32066D01*
X104488Y29923D01*
Y29916D01*
Y29882D01*
Y29833D01*
Y29771D01*
Y29694D01*
X104495Y29611D01*
Y29514D01*
X104502Y29410D01*
X104509Y29188D01*
X104523Y28966D01*
X104530Y28855D01*
X104544Y28751D01*
X104557Y28661D01*
X104571Y28571D01*
Y28564D01*
X104578Y28550D01*
Y28530D01*
X104592Y28495D01*
X104599Y28453D01*
X104613Y28405D01*
X104648Y28294D01*
X104689Y28155D01*
X104752Y27996D01*
X104821Y27822D01*
X104904Y27642D01*
X103087D01*
Y27649D01*
X103074Y27677D01*
X103060Y27718D01*
X103039Y27781D01*
X103011Y27857D01*
X102976Y27947D01*
X102942Y28058D01*
X102907Y28183D01*
Y28190D01*
X102900Y28210D01*
X102893Y28238D01*
X102879Y28273D01*
X102858Y28342D01*
X102852Y28370D01*
X102845Y28398D01*
X102838Y28391D01*
X102824Y28377D01*
X102796Y28356D01*
X102761Y28321D01*
X102720Y28287D01*
X102664Y28238D01*
X102609Y28190D01*
X102540Y28141D01*
X102394Y28030D01*
X102221Y27912D01*
X102033Y27808D01*
X101832Y27711D01*
X101825D01*
X101812Y27704D01*
X101777Y27690D01*
X101742Y27677D01*
X101687Y27656D01*
X101631Y27642D01*
X101562Y27621D01*
X101493Y27600D01*
X101409Y27573D01*
X101319Y27552D01*
X101125Y27517D01*
X100910Y27489D01*
X100688Y27482D01*
X100640D01*
X100584Y27489D01*
X100508D01*
X100418Y27503D01*
X100314Y27510D01*
X100203Y27531D01*
X100071Y27559D01*
X99939Y27587D01*
X99801Y27628D01*
X99662Y27670D01*
X99523Y27725D01*
X99384Y27794D01*
X99246Y27871D01*
X99114Y27961D01*
X98996Y28065D01*
X98989Y28072D01*
X98968Y28093D01*
X98941Y28127D01*
X98899Y28169D01*
X98851Y28224D01*
X98802Y28294D01*
X98747Y28377D01*
X98691Y28467D01*
X98629Y28571D01*
X98573Y28682D01*
X98525Y28800D01*
X98476Y28932D01*
X98434Y29070D01*
X98407Y29216D01*
X98386Y29376D01*
X98379Y29535D01*
Y29542D01*
Y29563D01*
Y29590D01*
X98386Y29632D01*
Y29688D01*
X98393Y29743D01*
X98400Y29812D01*
X98414Y29889D01*
X98448Y30048D01*
X98497Y30228D01*
X98566Y30409D01*
X98656Y30582D01*
X98663Y30589D01*
X98670Y30603D01*
X98684Y30624D01*
X98712Y30658D01*
X98774Y30742D01*
X98864Y30845D01*
X98975Y30956D01*
X99107Y31074D01*
X99267Y31192D01*
X99447Y31289D01*
X99454D01*
X99468Y31303D01*
X99502Y31317D01*
X99544Y31331D01*
X99593Y31352D01*
X99655Y31379D01*
X99731Y31407D01*
X99821Y31435D01*
X99918Y31470D01*
X100029Y31504D01*
X100147Y31539D01*
X100279Y31574D01*
X100418Y31615D01*
X100570Y31650D01*
X100737Y31685D01*
X100910Y31719D01*
X100924D01*
X100965Y31733D01*
X101035Y31740D01*
X101118Y31761D01*
X101222Y31782D01*
X101347Y31809D01*
X101479Y31837D01*
X101617Y31865D01*
X101916Y31941D01*
X102207Y32017D01*
X102345Y32052D01*
X102477Y32094D01*
X102595Y32135D01*
X102699Y32177D01*
Y32357D01*
Y32364D01*
Y32378D01*
Y32406D01*
X102692Y32440D01*
Y32489D01*
X102685Y32538D01*
X102664Y32648D01*
X102637Y32773D01*
X102588Y32898D01*
X102526Y33016D01*
X102484Y33064D01*
X102436Y33113D01*
X102422Y33120D01*
X102408Y33134D01*
X102380Y33148D01*
X102352Y33168D01*
X102311Y33182D01*
X102269Y33203D01*
X102214Y33231D01*
X102151Y33252D01*
X102075Y33273D01*
X101999Y33286D01*
X101909Y33307D01*
X101805Y33321D01*
X101694Y33335D01*
X101576Y33342D01*
X101361D01*
X101319Y33335D01*
X101271D01*
X101167Y33321D01*
X101042Y33293D01*
X100910Y33259D01*
X100785Y33210D01*
X100674Y33148D01*
X100660Y33141D01*
X100633Y33113D01*
X100577Y33057D01*
X100522Y32988D01*
X100452Y32898D01*
X100376Y32780D01*
X100307Y32635D01*
X100237Y32468D01*
X98566Y32766D01*
X98573Y32780D01*
X98580Y32808D01*
X98594Y32863D01*
X98622Y32933D01*
X98650Y33016D01*
X98691Y33113D01*
X98740Y33217D01*
X98788Y33328D01*
X98851Y33453D01*
X98927Y33571D01*
X99003Y33695D01*
X99093Y33820D01*
X99183Y33938D01*
X99294Y34056D01*
X99405Y34160D01*
X99530Y34257D01*
X99537Y34264D01*
X99565Y34278D01*
X99606Y34306D01*
X99662Y34333D01*
X99731Y34368D01*
X99821Y34410D01*
X99925Y34458D01*
X100050Y34507D01*
X100182Y34548D01*
X100335Y34597D01*
X100508Y34639D01*
X100688Y34673D01*
X100889Y34701D01*
X101104Y34729D01*
X101333Y34743D01*
X101583Y34750D01*
X101700D01*
X101784Y34743D01*
D02*
G37*
G36*
X80926D02*
X81030D01*
X81147Y34736D01*
X81279Y34729D01*
X81418Y34715D01*
X81564Y34701D01*
X81716Y34680D01*
X82021Y34625D01*
X82167Y34597D01*
X82312Y34555D01*
X82444Y34507D01*
X82562Y34458D01*
X82569D01*
X82590Y34444D01*
X82618Y34430D01*
X82659Y34403D01*
X82708Y34375D01*
X82763Y34340D01*
X82895Y34257D01*
X83034Y34146D01*
X83172Y34021D01*
X83304Y33876D01*
X83359Y33800D01*
X83408Y33716D01*
Y33709D01*
X83422Y33695D01*
X83429Y33668D01*
X83450Y33626D01*
X83464Y33578D01*
X83484Y33508D01*
X83512Y33432D01*
X83533Y33342D01*
X83554Y33238D01*
X83581Y33113D01*
X83602Y32981D01*
X83616Y32829D01*
X83637Y32662D01*
X83644Y32482D01*
X83658Y32281D01*
Y32066D01*
X83630Y29923D01*
Y29916D01*
Y29882D01*
Y29833D01*
Y29771D01*
Y29694D01*
X83637Y29611D01*
Y29514D01*
X83644Y29410D01*
X83651Y29188D01*
X83665Y28966D01*
X83672Y28855D01*
X83686Y28751D01*
X83699Y28661D01*
X83713Y28571D01*
Y28564D01*
X83720Y28550D01*
Y28530D01*
X83734Y28495D01*
X83741Y28453D01*
X83755Y28405D01*
X83790Y28294D01*
X83831Y28155D01*
X83893Y27996D01*
X83963Y27822D01*
X84046Y27642D01*
X82229D01*
Y27649D01*
X82215Y27677D01*
X82201Y27718D01*
X82181Y27781D01*
X82153Y27857D01*
X82118Y27947D01*
X82084Y28058D01*
X82049Y28183D01*
Y28190D01*
X82042Y28210D01*
X82035Y28238D01*
X82021Y28273D01*
X82000Y28342D01*
X81994Y28370D01*
X81987Y28398D01*
X81980Y28391D01*
X81966Y28377D01*
X81938Y28356D01*
X81903Y28321D01*
X81862Y28287D01*
X81806Y28238D01*
X81751Y28190D01*
X81681Y28141D01*
X81536Y28030D01*
X81362Y27912D01*
X81175Y27808D01*
X80974Y27711D01*
X80967D01*
X80953Y27704D01*
X80919Y27690D01*
X80884Y27677D01*
X80829Y27656D01*
X80773Y27642D01*
X80704Y27621D01*
X80634Y27600D01*
X80551Y27573D01*
X80461Y27552D01*
X80267Y27517D01*
X80052Y27489D01*
X79830Y27482D01*
X79781D01*
X79726Y27489D01*
X79650D01*
X79560Y27503D01*
X79456Y27510D01*
X79345Y27531D01*
X79213Y27559D01*
X79081Y27587D01*
X78942Y27628D01*
X78804Y27670D01*
X78665Y27725D01*
X78526Y27794D01*
X78388Y27871D01*
X78256Y27961D01*
X78138Y28065D01*
X78131Y28072D01*
X78110Y28093D01*
X78083Y28127D01*
X78041Y28169D01*
X77993Y28224D01*
X77944Y28294D01*
X77888Y28377D01*
X77833Y28467D01*
X77771Y28571D01*
X77715Y28682D01*
X77667Y28800D01*
X77618Y28932D01*
X77576Y29070D01*
X77549Y29216D01*
X77528Y29376D01*
X77521Y29535D01*
Y29542D01*
Y29563D01*
Y29590D01*
X77528Y29632D01*
Y29688D01*
X77535Y29743D01*
X77542Y29812D01*
X77556Y29889D01*
X77590Y30048D01*
X77639Y30228D01*
X77708Y30409D01*
X77798Y30582D01*
X77805Y30589D01*
X77812Y30603D01*
X77826Y30624D01*
X77854Y30658D01*
X77916Y30742D01*
X78006Y30845D01*
X78117Y30956D01*
X78249Y31074D01*
X78408Y31192D01*
X78589Y31289D01*
X78596D01*
X78610Y31303D01*
X78644Y31317D01*
X78686Y31331D01*
X78734Y31352D01*
X78797Y31379D01*
X78873Y31407D01*
X78963Y31435D01*
X79060Y31470D01*
X79171Y31504D01*
X79289Y31539D01*
X79421Y31574D01*
X79560Y31615D01*
X79712Y31650D01*
X79879Y31685D01*
X80052Y31719D01*
X80066D01*
X80107Y31733D01*
X80177Y31740D01*
X80260Y31761D01*
X80364Y31782D01*
X80489Y31809D01*
X80620Y31837D01*
X80759Y31865D01*
X81057Y31941D01*
X81349Y32017D01*
X81487Y32052D01*
X81619Y32094D01*
X81737Y32135D01*
X81841Y32177D01*
Y32357D01*
Y32364D01*
Y32378D01*
Y32406D01*
X81834Y32440D01*
Y32489D01*
X81827Y32538D01*
X81806Y32648D01*
X81779Y32773D01*
X81730Y32898D01*
X81668Y33016D01*
X81626Y33064D01*
X81578Y33113D01*
X81564Y33120D01*
X81550Y33134D01*
X81522Y33148D01*
X81494Y33168D01*
X81453Y33182D01*
X81411Y33203D01*
X81356Y33231D01*
X81293Y33252D01*
X81217Y33273D01*
X81141Y33286D01*
X81051Y33307D01*
X80946Y33321D01*
X80836Y33335D01*
X80718Y33342D01*
X80503D01*
X80461Y33335D01*
X80413D01*
X80309Y33321D01*
X80184Y33293D01*
X80052Y33259D01*
X79927Y33210D01*
X79816Y33148D01*
X79802Y33141D01*
X79775Y33113D01*
X79719Y33057D01*
X79664Y32988D01*
X79594Y32898D01*
X79518Y32780D01*
X79449Y32635D01*
X79379Y32468D01*
X77708Y32766D01*
X77715Y32780D01*
X77722Y32808D01*
X77736Y32863D01*
X77764Y32933D01*
X77791Y33016D01*
X77833Y33113D01*
X77881Y33217D01*
X77930Y33328D01*
X77993Y33453D01*
X78069Y33571D01*
X78145Y33695D01*
X78235Y33820D01*
X78325Y33938D01*
X78436Y34056D01*
X78547Y34160D01*
X78672Y34257D01*
X78679Y34264D01*
X78707Y34278D01*
X78748Y34306D01*
X78804Y34333D01*
X78873Y34368D01*
X78963Y34410D01*
X79067Y34458D01*
X79192Y34507D01*
X79324Y34548D01*
X79476Y34597D01*
X79650Y34639D01*
X79830Y34673D01*
X80031Y34701D01*
X80246Y34729D01*
X80475Y34743D01*
X80725Y34750D01*
X80842D01*
X80926Y34743D01*
D02*
G37*
G36*
X66017D02*
X66121D01*
X66239Y34736D01*
X66371Y34729D01*
X66509Y34715D01*
X66655Y34701D01*
X66808Y34680D01*
X67113Y34625D01*
X67258Y34597D01*
X67404Y34555D01*
X67536Y34507D01*
X67654Y34458D01*
X67660D01*
X67681Y34444D01*
X67709Y34430D01*
X67751Y34403D01*
X67799Y34375D01*
X67855Y34340D01*
X67986Y34257D01*
X68125Y34146D01*
X68264Y34021D01*
X68396Y33876D01*
X68451Y33800D01*
X68500Y33716D01*
Y33709D01*
X68513Y33695D01*
X68520Y33668D01*
X68541Y33626D01*
X68555Y33578D01*
X68576Y33508D01*
X68604Y33432D01*
X68624Y33342D01*
X68645Y33238D01*
X68673Y33113D01*
X68694Y32981D01*
X68708Y32829D01*
X68728Y32662D01*
X68735Y32482D01*
X68749Y32281D01*
Y32066D01*
X68721Y29923D01*
Y29916D01*
Y29882D01*
Y29833D01*
Y29771D01*
Y29694D01*
X68728Y29611D01*
Y29514D01*
X68735Y29410D01*
X68742Y29188D01*
X68756Y28966D01*
X68763Y28855D01*
X68777Y28751D01*
X68791Y28661D01*
X68805Y28571D01*
Y28564D01*
X68812Y28550D01*
Y28530D01*
X68825Y28495D01*
X68832Y28453D01*
X68846Y28405D01*
X68881Y28294D01*
X68923Y28155D01*
X68985Y27996D01*
X69054Y27822D01*
X69138Y27642D01*
X67321D01*
Y27649D01*
X67307Y27677D01*
X67293Y27718D01*
X67272Y27781D01*
X67245Y27857D01*
X67210Y27947D01*
X67175Y28058D01*
X67140Y28183D01*
Y28190D01*
X67133Y28210D01*
X67127Y28238D01*
X67113Y28273D01*
X67092Y28342D01*
X67085Y28370D01*
X67078Y28398D01*
X67071Y28391D01*
X67057Y28377D01*
X67030Y28356D01*
X66995Y28321D01*
X66953Y28287D01*
X66898Y28238D01*
X66842Y28190D01*
X66773Y28141D01*
X66627Y28030D01*
X66454Y27912D01*
X66267Y27808D01*
X66066Y27711D01*
X66059D01*
X66045Y27704D01*
X66010Y27690D01*
X65975Y27677D01*
X65920Y27656D01*
X65865Y27642D01*
X65795Y27621D01*
X65726Y27600D01*
X65643Y27573D01*
X65553Y27552D01*
X65358Y27517D01*
X65143Y27489D01*
X64921Y27482D01*
X64873D01*
X64818Y27489D01*
X64741D01*
X64651Y27503D01*
X64547Y27510D01*
X64436Y27531D01*
X64304Y27559D01*
X64173Y27587D01*
X64034Y27628D01*
X63895Y27670D01*
X63757Y27725D01*
X63618Y27794D01*
X63479Y27871D01*
X63347Y27961D01*
X63230Y28065D01*
X63223Y28072D01*
X63202Y28093D01*
X63174Y28127D01*
X63133Y28169D01*
X63084Y28224D01*
X63035Y28294D01*
X62980Y28377D01*
X62924Y28467D01*
X62862Y28571D01*
X62807Y28682D01*
X62758Y28800D01*
X62709Y28932D01*
X62668Y29070D01*
X62640Y29216D01*
X62619Y29376D01*
X62612Y29535D01*
Y29542D01*
Y29563D01*
Y29590D01*
X62619Y29632D01*
Y29688D01*
X62626Y29743D01*
X62633Y29812D01*
X62647Y29889D01*
X62682Y30048D01*
X62730Y30228D01*
X62800Y30409D01*
X62890Y30582D01*
X62897Y30589D01*
X62904Y30603D01*
X62917Y30624D01*
X62945Y30658D01*
X63008Y30742D01*
X63098Y30845D01*
X63209Y30956D01*
X63341Y31074D01*
X63500Y31192D01*
X63680Y31289D01*
X63687D01*
X63701Y31303D01*
X63736Y31317D01*
X63777Y31331D01*
X63826Y31352D01*
X63888Y31379D01*
X63965Y31407D01*
X64055Y31435D01*
X64152Y31470D01*
X64263Y31504D01*
X64381Y31539D01*
X64512Y31574D01*
X64651Y31615D01*
X64804Y31650D01*
X64970Y31685D01*
X65143Y31719D01*
X65157D01*
X65199Y31733D01*
X65268Y31740D01*
X65351Y31761D01*
X65455Y31782D01*
X65580Y31809D01*
X65712Y31837D01*
X65851Y31865D01*
X66149Y31941D01*
X66440Y32017D01*
X66579Y32052D01*
X66711Y32094D01*
X66828Y32135D01*
X66932Y32177D01*
Y32357D01*
Y32364D01*
Y32378D01*
Y32406D01*
X66926Y32440D01*
Y32489D01*
X66919Y32538D01*
X66898Y32648D01*
X66870Y32773D01*
X66821Y32898D01*
X66759Y33016D01*
X66718Y33064D01*
X66669Y33113D01*
X66655Y33120D01*
X66641Y33134D01*
X66613Y33148D01*
X66586Y33168D01*
X66544Y33182D01*
X66502Y33203D01*
X66447Y33231D01*
X66385Y33252D01*
X66308Y33273D01*
X66232Y33286D01*
X66142Y33307D01*
X66038Y33321D01*
X65927Y33335D01*
X65809Y33342D01*
X65594D01*
X65553Y33335D01*
X65504D01*
X65400Y33321D01*
X65275Y33293D01*
X65143Y33259D01*
X65019Y33210D01*
X64908Y33148D01*
X64894Y33141D01*
X64866Y33113D01*
X64811Y33057D01*
X64755Y32988D01*
X64686Y32898D01*
X64609Y32780D01*
X64540Y32635D01*
X64471Y32468D01*
X62800Y32766D01*
X62807Y32780D01*
X62814Y32808D01*
X62827Y32863D01*
X62855Y32933D01*
X62883Y33016D01*
X62924Y33113D01*
X62973Y33217D01*
X63021Y33328D01*
X63084Y33453D01*
X63160Y33571D01*
X63236Y33695D01*
X63327Y33820D01*
X63417Y33938D01*
X63528Y34056D01*
X63639Y34160D01*
X63763Y34257D01*
X63770Y34264D01*
X63798Y34278D01*
X63840Y34306D01*
X63895Y34333D01*
X63965Y34368D01*
X64055Y34410D01*
X64159Y34458D01*
X64284Y34507D01*
X64415Y34548D01*
X64568Y34597D01*
X64741Y34639D01*
X64921Y34673D01*
X65123Y34701D01*
X65338Y34729D01*
X65566Y34743D01*
X65816Y34750D01*
X65934D01*
X66017Y34743D01*
D02*
G37*
G36*
X60553Y34597D02*
X61808D01*
Y33134D01*
X60553D01*
Y30326D01*
Y30319D01*
Y30291D01*
Y30249D01*
Y30187D01*
Y30124D01*
Y30048D01*
X60560Y29882D01*
Y29708D01*
X60567Y29625D01*
Y29542D01*
X60574Y29473D01*
Y29410D01*
X60581Y29362D01*
X60588Y29327D01*
Y29320D01*
X60595Y29306D01*
X60608Y29278D01*
X60622Y29244D01*
X60643Y29209D01*
X60671Y29174D01*
X60705Y29133D01*
X60747Y29098D01*
X60754Y29091D01*
X60768Y29084D01*
X60796Y29070D01*
X60837Y29056D01*
X60879Y29036D01*
X60934Y29022D01*
X60997Y29015D01*
X61059Y29008D01*
X61108D01*
X61163Y29015D01*
X61246Y29029D01*
X61350Y29050D01*
X61482Y29084D01*
X61628Y29126D01*
X61801Y29181D01*
X61961Y27753D01*
X61954D01*
X61933Y27739D01*
X61898Y27725D01*
X61850Y27711D01*
X61787Y27690D01*
X61711Y27670D01*
X61628Y27642D01*
X61538Y27621D01*
X61434Y27593D01*
X61323Y27566D01*
X61205Y27545D01*
X61073Y27524D01*
X60803Y27496D01*
X60504Y27482D01*
X60421D01*
X60380Y27489D01*
X60331D01*
X60206Y27503D01*
X60068Y27524D01*
X59922Y27552D01*
X59763Y27593D01*
X59610Y27649D01*
X59603D01*
X59596Y27656D01*
X59575Y27663D01*
X59548Y27677D01*
X59478Y27718D01*
X59388Y27767D01*
X59291Y27829D01*
X59201Y27898D01*
X59104Y27982D01*
X59027Y28079D01*
X59021Y28093D01*
X59000Y28127D01*
X58965Y28190D01*
X58923Y28266D01*
X58882Y28370D01*
X58840Y28495D01*
X58799Y28640D01*
X58771Y28800D01*
Y28807D01*
Y28814D01*
X58764Y28835D01*
Y28862D01*
X58757Y28904D01*
Y28953D01*
X58750Y29015D01*
X58743Y29084D01*
X58736Y29160D01*
Y29258D01*
X58729Y29362D01*
X58722Y29479D01*
Y29611D01*
X58715Y29764D01*
Y29923D01*
Y30097D01*
Y33134D01*
X57869D01*
Y34597D01*
X58715D01*
Y35977D01*
X60553Y37059D01*
Y34597D01*
D02*
G37*
G36*
X53931Y34743D02*
X53972D01*
X54083Y34736D01*
X54215Y34722D01*
X54361Y34694D01*
X54534Y34666D01*
X54714Y34625D01*
X54902Y34569D01*
X55103Y34500D01*
X55304Y34417D01*
X55512Y34320D01*
X55713Y34202D01*
X55907Y34063D01*
X56094Y33904D01*
X56268Y33723D01*
X56275Y33709D01*
X56309Y33675D01*
X56351Y33612D01*
X56406Y33529D01*
X56476Y33418D01*
X56552Y33286D01*
X56628Y33127D01*
X56711Y32947D01*
X56795Y32739D01*
X56878Y32503D01*
X56947Y32246D01*
X57017Y31962D01*
X57065Y31657D01*
X57107Y31324D01*
X57127Y30963D01*
X57134Y30582D01*
X52523D01*
Y30575D01*
Y30547D01*
X52530Y30506D01*
Y30450D01*
X52537Y30381D01*
X52551Y30298D01*
X52565Y30215D01*
X52586Y30117D01*
X52634Y29909D01*
X52669Y29805D01*
X52710Y29701D01*
X52766Y29597D01*
X52821Y29493D01*
X52884Y29396D01*
X52960Y29306D01*
X52967Y29299D01*
X52981Y29285D01*
X53002Y29265D01*
X53036Y29237D01*
X53078Y29202D01*
X53133Y29160D01*
X53189Y29126D01*
X53258Y29084D01*
X53327Y29036D01*
X53411Y29001D01*
X53591Y28925D01*
X53695Y28897D01*
X53799Y28876D01*
X53910Y28862D01*
X54028Y28855D01*
X54069D01*
X54104Y28862D01*
X54180Y28869D01*
X54284Y28883D01*
X54395Y28911D01*
X54520Y28953D01*
X54638Y29008D01*
X54756Y29084D01*
X54763D01*
X54770Y29098D01*
X54805Y29133D01*
X54860Y29188D01*
X54922Y29272D01*
X54999Y29376D01*
X55075Y29507D01*
X55144Y29660D01*
X55207Y29847D01*
X57037Y29542D01*
X57030Y29528D01*
X57024Y29500D01*
X57003Y29445D01*
X56968Y29376D01*
X56933Y29292D01*
X56885Y29195D01*
X56829Y29084D01*
X56760Y28973D01*
X56691Y28849D01*
X56607Y28724D01*
X56510Y28592D01*
X56413Y28467D01*
X56302Y28342D01*
X56184Y28217D01*
X56053Y28107D01*
X55914Y28003D01*
X55907Y27996D01*
X55879Y27982D01*
X55838Y27954D01*
X55775Y27919D01*
X55699Y27885D01*
X55616Y27836D01*
X55505Y27794D01*
X55387Y27746D01*
X55255Y27697D01*
X55117Y27649D01*
X54957Y27600D01*
X54791Y27566D01*
X54610Y27531D01*
X54416Y27503D01*
X54215Y27489D01*
X54007Y27482D01*
X53931D01*
X53882Y27489D01*
X53834D01*
X53778Y27496D01*
X53709Y27503D01*
X53556Y27517D01*
X53390Y27545D01*
X53196Y27580D01*
X52988Y27628D01*
X52773Y27690D01*
X52551Y27774D01*
X52329Y27864D01*
X52107Y27982D01*
X51892Y28114D01*
X51691Y28273D01*
X51497Y28453D01*
X51323Y28661D01*
X51317Y28675D01*
X51296Y28703D01*
X51261Y28758D01*
X51220Y28835D01*
X51164Y28925D01*
X51109Y29036D01*
X51046Y29167D01*
X50984Y29320D01*
X50914Y29486D01*
X50852Y29667D01*
X50796Y29861D01*
X50748Y30076D01*
X50700Y30298D01*
X50665Y30540D01*
X50644Y30797D01*
X50637Y31061D01*
Y31067D01*
Y31081D01*
Y31102D01*
Y31137D01*
X50644Y31178D01*
Y31227D01*
Y31282D01*
X50651Y31345D01*
X50665Y31490D01*
X50686Y31657D01*
X50713Y31844D01*
X50748Y32045D01*
X50796Y32260D01*
X50859Y32482D01*
X50928Y32704D01*
X51018Y32933D01*
X51122Y33155D01*
X51240Y33370D01*
X51379Y33571D01*
X51539Y33765D01*
X51552Y33779D01*
X51580Y33806D01*
X51629Y33855D01*
X51698Y33917D01*
X51788Y33994D01*
X51899Y34077D01*
X52024Y34167D01*
X52163Y34257D01*
X52322Y34347D01*
X52495Y34437D01*
X52683Y34521D01*
X52884Y34597D01*
X53099Y34659D01*
X53327Y34708D01*
X53570Y34736D01*
X53827Y34750D01*
X53896D01*
X53931Y34743D01*
D02*
G37*
G36*
X44461Y10163D02*
X42806D01*
X40000Y17117D01*
X41931D01*
X43243Y13568D01*
X43624Y12381D01*
Y12387D01*
X43630Y12399D01*
X43637Y12424D01*
X43649Y12456D01*
X43674Y12531D01*
X43705Y12624D01*
X43737Y12724D01*
X43768Y12824D01*
X43793Y12912D01*
X43805Y12949D01*
X43811Y12981D01*
Y12987D01*
X43818Y12993D01*
X43830Y13031D01*
X43849Y13087D01*
X43874Y13162D01*
X43899Y13255D01*
X43937Y13355D01*
X43974Y13455D01*
X44012Y13568D01*
X45336Y17117D01*
X47229D01*
X44461Y10163D01*
D02*
G37*
G36*
X57664D02*
X55827D01*
Y11999D01*
X57664D01*
Y10163D01*
D02*
G37*
G36*
X52678D02*
X50835D01*
Y17098D01*
X50822Y17086D01*
X50791Y17054D01*
X50735Y17011D01*
X50654Y16942D01*
X50560Y16867D01*
X50441Y16773D01*
X50310Y16680D01*
X50160Y16573D01*
X49991Y16461D01*
X49810Y16342D01*
X49616Y16230D01*
X49404Y16111D01*
X49185Y15999D01*
X48954Y15892D01*
X48710Y15792D01*
X48454Y15705D01*
Y17373D01*
X48460D01*
X48485Y17386D01*
X48529Y17398D01*
X48579Y17423D01*
X48648Y17448D01*
X48729Y17486D01*
X48823Y17523D01*
X48923Y17573D01*
X49035Y17629D01*
X49154Y17698D01*
X49285Y17767D01*
X49423Y17848D01*
X49566Y17942D01*
X49710Y18042D01*
X49866Y18148D01*
X50022Y18267D01*
X50035Y18273D01*
X50060Y18298D01*
X50104Y18335D01*
X50160Y18385D01*
X50229Y18448D01*
X50304Y18523D01*
X50391Y18610D01*
X50485Y18710D01*
X50578Y18816D01*
X50679Y18935D01*
X50772Y19060D01*
X50866Y19198D01*
X50960Y19335D01*
X51041Y19485D01*
X51122Y19641D01*
X51185Y19804D01*
X52678D01*
Y10163D01*
D02*
G37*
G36*
X62369Y19798D02*
X62407D01*
X62507Y19791D01*
X62625Y19772D01*
X62757Y19754D01*
X62907Y19722D01*
X63069Y19679D01*
X63244Y19629D01*
X63419Y19560D01*
X63600Y19479D01*
X63781Y19385D01*
X63963Y19273D01*
X64138Y19141D01*
X64300Y18985D01*
X64456Y18810D01*
Y18804D01*
X64469Y18798D01*
X64481Y18779D01*
X64494Y18754D01*
X64519Y18723D01*
X64544Y18685D01*
X64569Y18635D01*
X64600Y18585D01*
X64637Y18523D01*
X64675Y18454D01*
X64712Y18379D01*
X64750Y18292D01*
X64794Y18198D01*
X64837Y18104D01*
X64881Y17992D01*
X64925Y17879D01*
X64969Y17754D01*
X65012Y17623D01*
X65056Y17486D01*
X65100Y17336D01*
X65137Y17179D01*
X65175Y17017D01*
X65212Y16842D01*
X65250Y16661D01*
X65281Y16473D01*
X65306Y16273D01*
X65331Y16067D01*
X65356Y15848D01*
X65368Y15624D01*
X65381Y15392D01*
X65394Y15149D01*
Y14899D01*
Y14892D01*
Y14868D01*
Y14830D01*
Y14780D01*
X65387Y14718D01*
Y14636D01*
X65381Y14549D01*
Y14455D01*
X65375Y14349D01*
X65362Y14230D01*
X65356Y14105D01*
X65343Y13974D01*
X65331Y13836D01*
X65312Y13687D01*
X65275Y13387D01*
X65225Y13068D01*
X65162Y12743D01*
X65087Y12418D01*
X64994Y12093D01*
X64887Y11781D01*
X64762Y11493D01*
X64694Y11350D01*
X64619Y11218D01*
X64538Y11100D01*
X64450Y10981D01*
X64444Y10969D01*
X64412Y10937D01*
X64369Y10893D01*
X64306Y10831D01*
X64225Y10756D01*
X64131Y10669D01*
X64019Y10581D01*
X63888Y10494D01*
X63738Y10400D01*
X63575Y10312D01*
X63400Y10225D01*
X63200Y10156D01*
X62994Y10094D01*
X62769Y10044D01*
X62532Y10013D01*
X62276Y10000D01*
X62213D01*
X62182Y10006D01*
X62138D01*
X62044Y10019D01*
X61926Y10031D01*
X61788Y10056D01*
X61632Y10087D01*
X61469Y10137D01*
X61294Y10194D01*
X61107Y10262D01*
X60920Y10350D01*
X60732Y10456D01*
X60545Y10575D01*
X60357Y10719D01*
X60182Y10887D01*
X60095Y10975D01*
X60014Y11075D01*
Y11081D01*
X60001Y11087D01*
X59995Y11106D01*
X59976Y11125D01*
X59957Y11156D01*
X59932Y11193D01*
X59907Y11237D01*
X59882Y11287D01*
X59851Y11343D01*
X59814Y11406D01*
X59782Y11481D01*
X59745Y11562D01*
X59707Y11650D01*
X59664Y11743D01*
X59626Y11849D01*
X59589Y11956D01*
X59545Y12081D01*
X59507Y12206D01*
X59464Y12343D01*
X59426Y12487D01*
X59389Y12637D01*
X59358Y12799D01*
X59320Y12968D01*
X59289Y13149D01*
X59264Y13337D01*
X59239Y13537D01*
X59214Y13743D01*
X59195Y13955D01*
X59176Y14186D01*
X59170Y14418D01*
X59158Y14661D01*
Y14918D01*
Y14924D01*
Y14949D01*
Y14986D01*
Y15036D01*
X59164Y15099D01*
Y15174D01*
X59170Y15261D01*
Y15361D01*
X59176Y15467D01*
X59189Y15586D01*
X59195Y15705D01*
X59208Y15836D01*
X59220Y15980D01*
X59239Y16123D01*
X59276Y16423D01*
X59326Y16742D01*
X59389Y17061D01*
X59464Y17386D01*
X59557Y17710D01*
X59664Y18017D01*
X59789Y18310D01*
X59857Y18448D01*
X59932Y18585D01*
X60014Y18704D01*
X60101Y18823D01*
X60107Y18835D01*
X60139Y18866D01*
X60182Y18916D01*
X60245Y18979D01*
X60326Y19048D01*
X60420Y19135D01*
X60539Y19223D01*
X60663Y19316D01*
X60813Y19404D01*
X60976Y19491D01*
X61157Y19579D01*
X61351Y19654D01*
X61557Y19716D01*
X61782Y19760D01*
X62019Y19791D01*
X62276Y19804D01*
X62338D01*
X62369Y19798D01*
D02*
G37*
%LPC*%
G36*
X82368Y59525D02*
X82306D01*
X82257Y59518D01*
X82201Y59511D01*
X82139Y59498D01*
X82063Y59484D01*
X81987Y59463D01*
X81903Y59435D01*
X81813Y59401D01*
X81723Y59359D01*
X81633Y59303D01*
X81543Y59248D01*
X81453Y59179D01*
X81362Y59095D01*
X81279Y59005D01*
X81272Y58998D01*
X81258Y58984D01*
X81238Y58950D01*
X81217Y58908D01*
X81182Y58853D01*
X81147Y58790D01*
X81106Y58707D01*
X81071Y58617D01*
X81030Y58513D01*
X80988Y58395D01*
X80953Y58270D01*
X80926Y58125D01*
X80898Y57972D01*
X80877Y57806D01*
X80863Y57632D01*
X80856Y57438D01*
Y57424D01*
Y57390D01*
Y57334D01*
X80863Y57258D01*
X80870Y57168D01*
X80877Y57064D01*
X80891Y56946D01*
X80912Y56821D01*
X80960Y56557D01*
X80995Y56426D01*
X81037Y56294D01*
X81085Y56162D01*
X81141Y56037D01*
X81203Y55926D01*
X81279Y55823D01*
X81286Y55816D01*
X81300Y55802D01*
X81321Y55774D01*
X81356Y55739D01*
X81397Y55705D01*
X81446Y55663D01*
X81508Y55614D01*
X81571Y55566D01*
X81647Y55517D01*
X81730Y55469D01*
X81910Y55392D01*
X82007Y55358D01*
X82111Y55330D01*
X82222Y55316D01*
X82340Y55309D01*
X82368D01*
X82403Y55316D01*
X82451D01*
X82514Y55323D01*
X82576Y55337D01*
X82652Y55351D01*
X82736Y55379D01*
X82826Y55406D01*
X82916Y55441D01*
X83006Y55483D01*
X83103Y55531D01*
X83200Y55594D01*
X83297Y55663D01*
X83387Y55746D01*
X83477Y55836D01*
X83484Y55843D01*
X83498Y55864D01*
X83519Y55892D01*
X83554Y55933D01*
X83588Y55989D01*
X83623Y56058D01*
X83665Y56135D01*
X83713Y56232D01*
X83755Y56336D01*
X83796Y56446D01*
X83831Y56578D01*
X83873Y56717D01*
X83900Y56870D01*
X83921Y57036D01*
X83935Y57209D01*
X83942Y57396D01*
Y57410D01*
Y57445D01*
Y57501D01*
X83935Y57570D01*
X83928Y57660D01*
X83921Y57764D01*
X83907Y57875D01*
X83886Y58000D01*
X83831Y58263D01*
X83796Y58395D01*
X83755Y58527D01*
X83699Y58652D01*
X83637Y58776D01*
X83568Y58894D01*
X83491Y58998D01*
X83484Y59005D01*
X83470Y59019D01*
X83443Y59047D01*
X83415Y59082D01*
X83366Y59123D01*
X83318Y59165D01*
X83256Y59213D01*
X83186Y59262D01*
X83110Y59310D01*
X83020Y59359D01*
X82930Y59401D01*
X82832Y59442D01*
X82722Y59477D01*
X82611Y59504D01*
X82493Y59518D01*
X82368Y59525D01*
D02*
G37*
G36*
X93997Y33293D02*
X93934D01*
X93886Y33286D01*
X93830Y33279D01*
X93761Y33266D01*
X93685Y33252D01*
X93601Y33231D01*
X93518Y33203D01*
X93428Y33162D01*
X93331Y33120D01*
X93241Y33071D01*
X93144Y33009D01*
X93054Y32940D01*
X92963Y32856D01*
X92873Y32766D01*
X92866Y32759D01*
X92852Y32745D01*
X92832Y32711D01*
X92804Y32669D01*
X92769Y32614D01*
X92735Y32551D01*
X92693Y32468D01*
X92651Y32378D01*
X92610Y32274D01*
X92568Y32163D01*
X92534Y32038D01*
X92499Y31899D01*
X92471Y31747D01*
X92450Y31588D01*
X92436Y31414D01*
X92430Y31227D01*
Y31213D01*
Y31178D01*
Y31116D01*
X92436Y31033D01*
X92443Y30936D01*
X92457Y30825D01*
X92471Y30707D01*
X92485Y30568D01*
X92540Y30291D01*
X92582Y30145D01*
X92624Y30000D01*
X92679Y29861D01*
X92741Y29729D01*
X92811Y29604D01*
X92894Y29493D01*
X92901Y29486D01*
X92915Y29473D01*
X92943Y29445D01*
X92977Y29410D01*
X93026Y29362D01*
X93074Y29320D01*
X93137Y29265D01*
X93213Y29216D01*
X93289Y29167D01*
X93379Y29112D01*
X93470Y29070D01*
X93567Y29029D01*
X93678Y28987D01*
X93789Y28959D01*
X93906Y28946D01*
X94031Y28939D01*
X94059D01*
X94094Y28946D01*
X94142D01*
X94191Y28953D01*
X94260Y28966D01*
X94330Y28980D01*
X94406Y29001D01*
X94489Y29029D01*
X94579Y29063D01*
X94669Y29105D01*
X94759Y29154D01*
X94850Y29216D01*
X94940Y29285D01*
X95023Y29362D01*
X95106Y29452D01*
X95113Y29459D01*
X95127Y29479D01*
X95148Y29507D01*
X95175Y29549D01*
X95203Y29604D01*
X95245Y29674D01*
X95279Y29757D01*
X95321Y29854D01*
X95363Y29965D01*
X95397Y30090D01*
X95439Y30228D01*
X95467Y30381D01*
X95494Y30547D01*
X95515Y30728D01*
X95529Y30922D01*
X95536Y31137D01*
Y31151D01*
Y31185D01*
Y31241D01*
X95529Y31317D01*
X95522Y31407D01*
X95515Y31511D01*
X95501Y31629D01*
X95480Y31754D01*
X95425Y32017D01*
X95390Y32149D01*
X95349Y32281D01*
X95300Y32413D01*
X95238Y32538D01*
X95169Y32655D01*
X95092Y32759D01*
X95085Y32766D01*
X95071Y32780D01*
X95051Y32808D01*
X95016Y32843D01*
X94967Y32884D01*
X94919Y32926D01*
X94857Y32974D01*
X94787Y33030D01*
X94711Y33078D01*
X94628Y33127D01*
X94537Y33168D01*
X94440Y33210D01*
X94343Y33245D01*
X94232Y33273D01*
X94115Y33286D01*
X93997Y33293D01*
D02*
G37*
G36*
X102699Y30977D02*
X102692D01*
X102685Y30970D01*
X102664Y30963D01*
X102630Y30956D01*
X102595Y30943D01*
X102547Y30929D01*
X102491Y30915D01*
X102422Y30901D01*
X102345Y30880D01*
X102262Y30859D01*
X102172Y30832D01*
X102068Y30811D01*
X101957Y30783D01*
X101839Y30755D01*
X101707Y30721D01*
X101569Y30693D01*
X101562D01*
X101534Y30686D01*
X101499Y30679D01*
X101444Y30665D01*
X101382Y30651D01*
X101312Y30631D01*
X101160Y30589D01*
X100993Y30540D01*
X100827Y30492D01*
X100751Y30457D01*
X100681Y30429D01*
X100619Y30402D01*
X100570Y30374D01*
X100563D01*
X100556Y30360D01*
X100515Y30326D01*
X100459Y30270D01*
X100397Y30194D01*
X100328Y30104D01*
X100272Y29993D01*
X100231Y29861D01*
X100224Y29792D01*
X100217Y29722D01*
Y29715D01*
Y29708D01*
Y29688D01*
X100224Y29660D01*
X100231Y29583D01*
X100251Y29493D01*
X100286Y29389D01*
X100335Y29278D01*
X100404Y29167D01*
X100501Y29056D01*
X100515Y29043D01*
X100556Y29015D01*
X100619Y28966D01*
X100702Y28918D01*
X100806Y28869D01*
X100931Y28821D01*
X101076Y28793D01*
X101236Y28779D01*
X101285D01*
X101319Y28786D01*
X101368D01*
X101416Y28800D01*
X101541Y28821D01*
X101687Y28862D01*
X101846Y28918D01*
X102013Y29001D01*
X102103Y29050D01*
X102186Y29105D01*
X102193D01*
X102200Y29119D01*
X102241Y29147D01*
X102297Y29202D01*
X102366Y29272D01*
X102443Y29362D01*
X102512Y29466D01*
X102574Y29583D01*
X102623Y29708D01*
X102630Y29722D01*
X102637Y29757D01*
X102644Y29785D01*
X102650Y29819D01*
X102657Y29861D01*
X102664Y29909D01*
X102671Y29965D01*
X102678Y30034D01*
Y30104D01*
X102685Y30187D01*
X102692Y30277D01*
X102699Y30381D01*
Y30492D01*
Y30610D01*
Y30977D01*
D02*
G37*
G36*
X81841D02*
X81834D01*
X81827Y30970D01*
X81806Y30963D01*
X81772Y30956D01*
X81737Y30943D01*
X81688Y30929D01*
X81633Y30915D01*
X81564Y30901D01*
X81487Y30880D01*
X81404Y30859D01*
X81314Y30832D01*
X81210Y30811D01*
X81099Y30783D01*
X80981Y30755D01*
X80849Y30721D01*
X80711Y30693D01*
X80704D01*
X80676Y30686D01*
X80641Y30679D01*
X80586Y30665D01*
X80524Y30651D01*
X80454Y30631D01*
X80302Y30589D01*
X80135Y30540D01*
X79969Y30492D01*
X79892Y30457D01*
X79823Y30429D01*
X79761Y30402D01*
X79712Y30374D01*
X79705D01*
X79698Y30360D01*
X79657Y30326D01*
X79601Y30270D01*
X79539Y30194D01*
X79469Y30104D01*
X79414Y29993D01*
X79372Y29861D01*
X79365Y29792D01*
X79359Y29722D01*
Y29715D01*
Y29708D01*
Y29688D01*
X79365Y29660D01*
X79372Y29583D01*
X79393Y29493D01*
X79428Y29389D01*
X79476Y29278D01*
X79546Y29167D01*
X79643Y29056D01*
X79657Y29043D01*
X79698Y29015D01*
X79761Y28966D01*
X79844Y28918D01*
X79948Y28869D01*
X80073Y28821D01*
X80218Y28793D01*
X80378Y28779D01*
X80426D01*
X80461Y28786D01*
X80510D01*
X80558Y28800D01*
X80683Y28821D01*
X80829Y28862D01*
X80988Y28918D01*
X81154Y29001D01*
X81245Y29050D01*
X81328Y29105D01*
X81335D01*
X81342Y29119D01*
X81383Y29147D01*
X81439Y29202D01*
X81508Y29272D01*
X81584Y29362D01*
X81654Y29466D01*
X81716Y29583D01*
X81765Y29708D01*
X81772Y29722D01*
X81779Y29757D01*
X81785Y29785D01*
X81792Y29819D01*
X81799Y29861D01*
X81806Y29909D01*
X81813Y29965D01*
X81820Y30034D01*
Y30104D01*
X81827Y30187D01*
X81834Y30277D01*
X81841Y30381D01*
Y30492D01*
Y30610D01*
Y30977D01*
D02*
G37*
G36*
X66932D02*
X66926D01*
X66919Y30970D01*
X66898Y30963D01*
X66863Y30956D01*
X66828Y30943D01*
X66780Y30929D01*
X66724Y30915D01*
X66655Y30901D01*
X66579Y30880D01*
X66496Y30859D01*
X66405Y30832D01*
X66301Y30811D01*
X66191Y30783D01*
X66073Y30755D01*
X65941Y30721D01*
X65802Y30693D01*
X65795D01*
X65767Y30686D01*
X65733Y30679D01*
X65677Y30665D01*
X65615Y30651D01*
X65546Y30631D01*
X65393Y30589D01*
X65227Y30540D01*
X65060Y30492D01*
X64984Y30457D01*
X64915Y30429D01*
X64852Y30402D01*
X64804Y30374D01*
X64797D01*
X64790Y30360D01*
X64748Y30326D01*
X64693Y30270D01*
X64630Y30194D01*
X64561Y30104D01*
X64506Y29993D01*
X64464Y29861D01*
X64457Y29792D01*
X64450Y29722D01*
Y29715D01*
Y29708D01*
Y29688D01*
X64457Y29660D01*
X64464Y29583D01*
X64485Y29493D01*
X64519Y29389D01*
X64568Y29278D01*
X64637Y29167D01*
X64734Y29056D01*
X64748Y29043D01*
X64790Y29015D01*
X64852Y28966D01*
X64935Y28918D01*
X65039Y28869D01*
X65164Y28821D01*
X65310Y28793D01*
X65469Y28779D01*
X65518D01*
X65553Y28786D01*
X65601D01*
X65650Y28800D01*
X65774Y28821D01*
X65920Y28862D01*
X66080Y28918D01*
X66246Y29001D01*
X66336Y29050D01*
X66419Y29105D01*
X66426D01*
X66433Y29119D01*
X66475Y29147D01*
X66530Y29202D01*
X66600Y29272D01*
X66676Y29362D01*
X66745Y29466D01*
X66808Y29583D01*
X66856Y29708D01*
X66863Y29722D01*
X66870Y29757D01*
X66877Y29785D01*
X66884Y29819D01*
X66891Y29861D01*
X66898Y29909D01*
X66905Y29965D01*
X66912Y30034D01*
Y30104D01*
X66919Y30187D01*
X66926Y30277D01*
X66932Y30381D01*
Y30492D01*
Y30610D01*
Y30977D01*
D02*
G37*
G36*
X53938Y33342D02*
X53882D01*
X53841Y33335D01*
X53785Y33328D01*
X53723Y33321D01*
X53660Y33307D01*
X53584Y33286D01*
X53432Y33231D01*
X53348Y33196D01*
X53265Y33155D01*
X53175Y33106D01*
X53099Y33044D01*
X53015Y32974D01*
X52939Y32898D01*
X52932Y32891D01*
X52925Y32877D01*
X52905Y32850D01*
X52877Y32815D01*
X52849Y32773D01*
X52814Y32718D01*
X52780Y32655D01*
X52745Y32586D01*
X52703Y32503D01*
X52669Y32413D01*
X52641Y32316D01*
X52606Y32212D01*
X52586Y32094D01*
X52565Y31976D01*
X52551Y31844D01*
Y31705D01*
X55311D01*
Y31712D01*
Y31740D01*
X55304Y31782D01*
Y31837D01*
X55297Y31906D01*
X55283Y31983D01*
X55269Y32066D01*
X55248Y32156D01*
X55200Y32350D01*
X55124Y32551D01*
X55082Y32655D01*
X55026Y32745D01*
X54964Y32836D01*
X54895Y32919D01*
X54888Y32926D01*
X54874Y32940D01*
X54853Y32961D01*
X54825Y32988D01*
X54784Y33016D01*
X54742Y33051D01*
X54687Y33092D01*
X54624Y33134D01*
X54486Y33210D01*
X54326Y33279D01*
X54236Y33300D01*
X54139Y33321D01*
X54042Y33335D01*
X53938Y33342D01*
D02*
G37*
G36*
X62276Y18279D02*
X62219D01*
X62157Y18267D01*
X62076Y18254D01*
X61982Y18229D01*
X61882Y18192D01*
X61776Y18135D01*
X61676Y18067D01*
X61663Y18054D01*
X61632Y18023D01*
X61588Y17973D01*
X61557Y17936D01*
X61532Y17892D01*
X61494Y17842D01*
X61463Y17786D01*
X61432Y17723D01*
X61395Y17654D01*
X61363Y17579D01*
X61332Y17498D01*
X61301Y17404D01*
X61269Y17304D01*
Y17298D01*
X61263Y17273D01*
X61251Y17229D01*
X61238Y17167D01*
X61226Y17086D01*
X61213Y16986D01*
X61195Y16873D01*
X61176Y16736D01*
X61157Y16580D01*
X61145Y16405D01*
X61126Y16205D01*
X61113Y15986D01*
X61101Y15748D01*
X61088Y15486D01*
X61082Y15205D01*
Y14899D01*
Y14892D01*
Y14880D01*
Y14855D01*
Y14824D01*
Y14786D01*
Y14736D01*
Y14686D01*
Y14624D01*
X61088Y14486D01*
Y14330D01*
X61095Y14155D01*
X61101Y13974D01*
X61113Y13780D01*
X61126Y13587D01*
X61138Y13393D01*
X61151Y13205D01*
X61176Y13024D01*
X61195Y12855D01*
X61220Y12706D01*
X61251Y12574D01*
Y12568D01*
X61257Y12549D01*
X61269Y12512D01*
X61282Y12474D01*
X61301Y12424D01*
X61319Y12362D01*
X61370Y12231D01*
X61432Y12093D01*
X61507Y11949D01*
X61544Y11887D01*
X61588Y11831D01*
X61632Y11775D01*
X61682Y11731D01*
X61694Y11725D01*
X61726Y11700D01*
X61782Y11668D01*
X61851Y11631D01*
X61938Y11587D01*
X62038Y11556D01*
X62151Y11531D01*
X62276Y11525D01*
X62307D01*
X62332Y11531D01*
X62394Y11537D01*
X62476Y11550D01*
X62569Y11575D01*
X62663Y11612D01*
X62769Y11668D01*
X62869Y11737D01*
X62882Y11750D01*
X62913Y11781D01*
X62963Y11831D01*
X62988Y11868D01*
X63019Y11912D01*
X63050Y11962D01*
X63082Y12018D01*
X63119Y12081D01*
X63150Y12149D01*
X63182Y12224D01*
X63219Y12312D01*
X63250Y12399D01*
X63275Y12499D01*
Y12506D01*
X63281Y12531D01*
X63294Y12574D01*
X63306Y12637D01*
X63319Y12718D01*
X63338Y12812D01*
X63356Y12931D01*
X63375Y13062D01*
X63388Y13218D01*
X63407Y13393D01*
X63425Y13593D01*
X63438Y13812D01*
X63450Y14049D01*
X63463Y14311D01*
X63469Y14593D01*
Y14899D01*
Y14905D01*
Y14918D01*
Y14943D01*
Y14974D01*
Y15011D01*
Y15061D01*
Y15111D01*
Y15174D01*
X63463Y15311D01*
Y15467D01*
X63457Y15636D01*
X63450Y15824D01*
X63438Y16011D01*
X63425Y16205D01*
X63413Y16398D01*
X63394Y16586D01*
X63375Y16767D01*
X63350Y16936D01*
X63325Y17086D01*
X63294Y17217D01*
Y17223D01*
X63288Y17242D01*
X63275Y17279D01*
X63263Y17323D01*
X63244Y17373D01*
X63225Y17429D01*
X63175Y17561D01*
X63113Y17704D01*
X63044Y17842D01*
X63000Y17910D01*
X62957Y17967D01*
X62913Y18023D01*
X62863Y18067D01*
X62850Y18073D01*
X62819Y18098D01*
X62763Y18135D01*
X62694Y18173D01*
X62607Y18210D01*
X62507Y18248D01*
X62394Y18273D01*
X62276Y18279D01*
D02*
G37*
%LPD*%
M02*
