G04*
G04 #@! TF.GenerationSoftware,Altium Limited,Altium Designer,25.5.2 (35)*
G04*
G04 Layer_Color=8421504*
%FSLAX44Y44*%
%MOMM*%
G71*
G04*
G04 #@! TF.SameCoordinates,B71373E1-A009-4548-BE53-F5938B562A23*
G04*
G04*
G04 #@! TF.FilePolarity,Positive*
G04*
G01*
G75*
%ADD10R,0.4400X0.3500*%
%ADD11R,0.6600X0.2200*%
D10*
X135000Y62500D02*
D03*
X135001Y7500D02*
D03*
X15001D02*
D03*
X15000Y62500D02*
D03*
D11*
X126450Y37000D02*
D03*
Y33000D02*
D03*
Y41000D02*
D03*
Y29000D02*
D03*
Y53000D02*
D03*
Y49000D02*
D03*
Y45000D02*
D03*
X143550Y17000D02*
D03*
Y21000D02*
D03*
Y25000D02*
D03*
Y29000D02*
D03*
Y33000D02*
D03*
Y37000D02*
D03*
Y41000D02*
D03*
Y45000D02*
D03*
Y49000D02*
D03*
Y53000D02*
D03*
X126450Y17000D02*
D03*
Y21000D02*
D03*
Y25000D02*
D03*
X6450D02*
D03*
Y21000D02*
D03*
Y17000D02*
D03*
X23550Y53000D02*
D03*
Y49000D02*
D03*
Y45000D02*
D03*
Y41000D02*
D03*
Y37000D02*
D03*
Y33000D02*
D03*
Y29000D02*
D03*
Y25000D02*
D03*
Y21000D02*
D03*
Y17000D02*
D03*
X6450Y45000D02*
D03*
Y49000D02*
D03*
Y53000D02*
D03*
Y29000D02*
D03*
Y41000D02*
D03*
Y33000D02*
D03*
Y37000D02*
D03*
M02*
