M48
;Layer_Color=9474304
;FILE_FORMAT=2:5
INCH,LZ
;TYPE=PLATED
T01F00S00C0.00787
%
T01
X0006299Y0006693
X0004921Y0008268
X0006299Y0009843
X0004921Y0011417
X0006299Y0012992
X0004921Y0014567
X0006299Y0016142
X0004921Y0017717
X0006299Y0019291
X0004921Y0020866
X0054134Y0020866
X0052756Y0019291
X0054134Y0017717
X0052756Y0016142
X0054134Y0014567
X0052756Y0012992
X0054134Y0011417
X0052756Y0009843
X0054134Y0008268
X0052756Y0006693
M30
